# xmcd
#
# Track frame offsets:
#	150
#	24187
#	44914
#	60243
#	77154
#	90282
#	101886
#	115513
#	130136
#	144969
#	158885
#	174544
#	183758
#	198324
#	211503
#	219401
#	227054
#	230885
#	240264
#	254125
#
# Disc length: 3578 seconds
#
# Revision: 0
# Processed by: cddbd v1.5.2PL0 Copyright (c) Steve Scherf et al.
# Submitted via: EasyCDDAExtractor 16.0.8.1
#
DISCID=050df814
DTITLE=Βασίλης Τσιτάνης - Βασίλης Τσιτάνης 07
DYEAR=1900
DGENRE=ÑåìðÝôéêá
TTITLE0=Πόλυ Πάνου, Νίκος μαραγκόπουλος and Κώστας Τσίγκος - Η Σεραχ
TTITLE1=Στέλιος Καζαντζίδης - Σαν Αποκληρος Γυριζω
TTITLE2=Σωτηρία Μπέλλου - Αντιλαλουνε Τα Βουνα
TTITLE3=Καίτη Ντάλη - Αθηναίϊσα (Live)
TTITLE4=Αγάθωνας Ιακωβίδης and κατερίνα Τσιρίδου - Φτωχοπαιδο Με Γνωρισες
TTITLE5=Μαριώ - Θεσσαλονικη Ξακουσμενη
TTITLE6=Γιάννης Αλεξανδρής - Τρελη Που Θελεις Να Με Στεφζνωσεις
TTITLE7=Ηλίας Μακρής - Γιαλο Γιαλο
TTITLE8=Χαρούλα Λαμπράκη - Ολο Με Μαλωνεις
TTITLE9=Μανώλης Μητσιάς - Με Τον Ερωτα Θα Κλαψεις
TTITLE10=Σωτηρία Μπέλλου - Κατηγορω Την Κοινωνια
TTITLE11=Κούης Σκαρπέλης - Η Δροσουλα
TTITLE12=Περικλής Περάκης and Γεωργία Λόγγου - Μποεμισσα
TTITLE13=Αθηνά Μόραλη - Το Πλοιο Θα Σαλπαρει
TTITLE14=Αλεξάνδρα - Ομορφη Θεσσαλονικη
TTITLE15=Αλεξάνδρα - Αποψε Κανεις Μπαμ
TTITLE16=Αλεξάνδρα - Ελα Οπως Εισαι
TTITLE17=Αλεξάνδρα - Ξημερωνει Και Βραδιαζει
TTITLE18=Ελένη and ουζάναΒουγιουκλή - Οτι Κι Αν Πω Δε Σε Ξεχνω
TTITLE19=Βασίλης Ηλιάδης - Γιατι Με Ξυπνησες Πρωϊ
EXTD=
EXTT0=
EXTT1=
EXTT2=
EXTT3=
EXTT4=
EXTT5=
EXTT6=
EXTT7=
EXTT8=
EXTT9=
EXTT10=
EXTT11=
EXTT12=
EXTT13=
EXTT14=
EXTT15=
EXTT16=
EXTT17=
EXTT18=
EXTT19=
PLAYORDER=
